<mxfile host="Electron" modified="2024-01-04T13:24:29.474Z" agent="Mozilla/5.0 (Windows NT 10.0; Win64; x64) AppleWebKit/537.36 (KHTML, like Gecko) draw.io/22.0.3 Chrome/114.0.5735.289 Electron/25.8.4 Safari/537.36" etag="OfaJs2WOVRAsJDf7W7Pi" version="22.0.3" type="device">
  <diagram name="第 1 页" id="cdjxVekYtDgV6NIiHvIZ">
    <mxGraphModel dx="842" dy="568" grid="1" gridSize="10" guides="1" tooltips="1" connect="1" arrows="1" fold="1" page="1" pageScale="1" pageWidth="1169" pageHeight="827" math="0" shadow="0">
      <root>
        <mxCell id="0" />
        <mxCell id="1" parent="0" />
        <mxCell id="9_uZ8txBv0w3vRwZMVAc-26" value="&lt;font face=&quot;Times New Roman&quot;&gt;Computationally demanding&lt;/font&gt;" style="rounded=1;whiteSpace=wrap;html=1;fillColor=#FCBE95;strokeColor=#E87A4A;" vertex="1" parent="1">
          <mxGeometry x="470" y="220" width="90" height="40" as="geometry" />
        </mxCell>
        <mxCell id="9_uZ8txBv0w3vRwZMVAc-1" value="&lt;font face=&quot;Times New Roman&quot;&gt;&lt;b&gt;FWSVD on LLM&lt;/b&gt;&lt;/font&gt;" style="rounded=1;whiteSpace=wrap;html=1;fillColor=#dae8fc;strokeColor=#6c8ebf;" vertex="1" parent="1">
          <mxGeometry x="80" y="320" width="120" height="40" as="geometry" />
        </mxCell>
        <mxCell id="9_uZ8txBv0w3vRwZMVAc-2" value="" style="shape=curlyBracket;whiteSpace=wrap;html=1;rounded=1;labelPosition=left;verticalLabelPosition=middle;align=right;verticalAlign=middle;" vertex="1" parent="1">
          <mxGeometry x="200" y="240" width="20" height="200" as="geometry" />
        </mxCell>
        <mxCell id="9_uZ8txBv0w3vRwZMVAc-3" value="&lt;font face=&quot;Times New Roman&quot;&gt;&lt;b&gt;Forward &amp;amp; Backward&lt;/b&gt;&lt;/font&gt;" style="rounded=1;whiteSpace=wrap;html=1;fillColor=#fff2cc;strokeColor=#d6b656;" vertex="1" parent="1">
          <mxGeometry x="220" y="220" width="130" height="40" as="geometry" />
        </mxCell>
        <mxCell id="9_uZ8txBv0w3vRwZMVAc-6" value="&lt;font face=&quot;Times New Roman&quot;&gt;&lt;b&gt;Postcompressing PEFT&lt;/b&gt;&lt;/font&gt;" style="rounded=1;whiteSpace=wrap;html=1;fillColor=#fff2cc;strokeColor=#d6b656;" vertex="1" parent="1">
          <mxGeometry x="220" y="420" width="130" height="40" as="geometry" />
        </mxCell>
        <mxCell id="9_uZ8txBv0w3vRwZMVAc-7" value="" style="rounded=1;whiteSpace=wrap;html=1;" vertex="1" parent="1">
          <mxGeometry x="220" y="320" width="130" height="40" as="geometry" />
        </mxCell>
        <mxCell id="9_uZ8txBv0w3vRwZMVAc-8" value="" style="ellipse;whiteSpace=wrap;html=1;aspect=fixed;fillColor=#F2F0E1;fontColor=#333333;strokeColor=#666666;" vertex="1" parent="1">
          <mxGeometry x="230" y="330" width="20" height="20" as="geometry" />
        </mxCell>
        <mxCell id="9_uZ8txBv0w3vRwZMVAc-9" value="" style="ellipse;whiteSpace=wrap;html=1;aspect=fixed;fillColor=#F5F1D0;fontColor=#333333;strokeColor=#666666;" vertex="1" parent="1">
          <mxGeometry x="260" y="330" width="20" height="20" as="geometry" />
        </mxCell>
        <mxCell id="9_uZ8txBv0w3vRwZMVAc-10" value="" style="ellipse;whiteSpace=wrap;html=1;aspect=fixed;fillColor=#E0CAB4;fontColor=#333333;strokeColor=#666666;" vertex="1" parent="1">
          <mxGeometry x="290" y="330" width="20" height="20" as="geometry" />
        </mxCell>
        <mxCell id="9_uZ8txBv0w3vRwZMVAc-11" value="" style="ellipse;whiteSpace=wrap;html=1;aspect=fixed;fillColor=#F5F3E4;fontColor=#333333;strokeColor=#666666;" vertex="1" parent="1">
          <mxGeometry x="320" y="330" width="20" height="20" as="geometry" />
        </mxCell>
        <mxCell id="9_uZ8txBv0w3vRwZMVAc-12" value="&lt;font face=&quot;Times New Roman&quot;&gt;Domain specific datasets&lt;/font&gt;" style="text;html=1;strokeColor=none;fillColor=none;align=center;verticalAlign=middle;whiteSpace=wrap;rounded=0;" vertex="1" parent="1">
          <mxGeometry x="350" y="325" width="90" height="30" as="geometry" />
        </mxCell>
        <mxCell id="9_uZ8txBv0w3vRwZMVAc-13" value="" style="shape=flexArrow;endArrow=classic;html=1;rounded=0;width=10.285714285714286;endSize=5.651428571428572;endWidth=15.183673469387754;" edge="1" parent="1">
          <mxGeometry width="50" height="50" relative="1" as="geometry">
            <mxPoint x="284.71" y="310" as="sourcePoint" />
            <mxPoint x="284.71" y="270" as="targetPoint" />
          </mxGeometry>
        </mxCell>
        <mxCell id="9_uZ8txBv0w3vRwZMVAc-14" value="&lt;font face=&quot;Times New Roman&quot;&gt;Fisher information&lt;/font&gt;" style="text;html=1;strokeColor=none;fillColor=none;align=center;verticalAlign=middle;whiteSpace=wrap;rounded=0;" vertex="1" parent="1">
          <mxGeometry x="350" y="225" width="90" height="30" as="geometry" />
        </mxCell>
        <mxCell id="9_uZ8txBv0w3vRwZMVAc-15" value="&lt;font face=&quot;Times New Roman&quot;&gt;Performance regaining&lt;/font&gt;" style="text;html=1;strokeColor=none;fillColor=none;align=center;verticalAlign=middle;whiteSpace=wrap;rounded=0;" vertex="1" parent="1">
          <mxGeometry x="350" y="425" width="90" height="30" as="geometry" />
        </mxCell>
        <mxCell id="9_uZ8txBv0w3vRwZMVAc-16" value="" style="shape=flexArrow;endArrow=classic;html=1;rounded=0;width=10.285714285714286;endSize=5.651428571428572;endWidth=15.183673469387754;" edge="1" parent="1">
          <mxGeometry width="50" height="50" relative="1" as="geometry">
            <mxPoint x="284.71" y="370" as="sourcePoint" />
            <mxPoint x="285" y="410" as="targetPoint" />
          </mxGeometry>
        </mxCell>
        <mxCell id="9_uZ8txBv0w3vRwZMVAc-18" value="" style="endArrow=classic;html=1;rounded=0;" edge="1" parent="1">
          <mxGeometry width="50" height="50" relative="1" as="geometry">
            <mxPoint x="430" y="240" as="sourcePoint" />
            <mxPoint x="470" y="240" as="targetPoint" />
          </mxGeometry>
        </mxCell>
        <mxCell id="9_uZ8txBv0w3vRwZMVAc-21" value="" style="endArrow=classic;html=1;rounded=0;entryX=0;entryY=0.5;entryDx=0;entryDy=0;" edge="1" parent="1">
          <mxGeometry width="50" height="50" relative="1" as="geometry">
            <mxPoint x="430" y="240" as="sourcePoint" />
            <mxPoint x="470" y="340" as="targetPoint" />
          </mxGeometry>
        </mxCell>
        <mxCell id="9_uZ8txBv0w3vRwZMVAc-22" value="" style="endArrow=classic;html=1;rounded=0;entryX=0;entryY=0.5;entryDx=0;entryDy=0;" edge="1" parent="1">
          <mxGeometry width="50" height="50" relative="1" as="geometry">
            <mxPoint x="430" y="440" as="sourcePoint" />
            <mxPoint x="470" y="340" as="targetPoint" />
          </mxGeometry>
        </mxCell>
        <mxCell id="9_uZ8txBv0w3vRwZMVAc-24" value="" style="endArrow=classic;html=1;rounded=0;" edge="1" parent="1">
          <mxGeometry width="50" height="50" relative="1" as="geometry">
            <mxPoint x="430" y="440" as="sourcePoint" />
            <mxPoint x="470" y="440" as="targetPoint" />
          </mxGeometry>
        </mxCell>
        <mxCell id="9_uZ8txBv0w3vRwZMVAc-27" value="&lt;font face=&quot;Times New Roman&quot;&gt;Degradation on other domains&lt;/font&gt;" style="rounded=1;whiteSpace=wrap;html=1;fillColor=#E89C97;strokeColor=#b85450;" vertex="1" parent="1">
          <mxGeometry x="470" y="320" width="90" height="40" as="geometry" />
        </mxCell>
        <mxCell id="9_uZ8txBv0w3vRwZMVAc-29" value="&lt;font face=&quot;Times New Roman&quot;&gt;Extra time&lt;/font&gt;" style="rounded=1;whiteSpace=wrap;html=1;fillColor=#ffe6cc;strokeColor=#d79b00;" vertex="1" parent="1">
          <mxGeometry x="470" y="420" width="90" height="40" as="geometry" />
        </mxCell>
      </root>
    </mxGraphModel>
  </diagram>
</mxfile>
